<svg width="32" height="32" xmlns="http://www.w3.org/2000/svg"><path d="M25.932 5.541c-3.435-2.342-7.676-1.249-9.966 1.431-2.29-2.68-6.53-3.786-9.965-1.43-1.821 1.248-2.966 3.356-3.044 5.58-.182 5.048 4.293 9.094 11.123 15.3l.13.117a2.599 2.599 0 0 0 3.5-.013l.143-.13c6.83-6.193 11.292-10.239 11.123-15.287-.078-2.211-1.223-4.319-3.044-5.568zm-9.835 18.942l-.13.13-.13-.13C9.643 18.876 5.558 15.168 5.558 11.41c0-2.602 1.951-4.554 4.553-4.554 2.004 0 3.955 1.288 4.645 3.07h2.432c.677-1.782 2.628-3.07 4.632-3.07 2.602 0 4.553 1.952 4.553 4.554 0 3.76-4.085 7.467-10.277 13.074z"/></svg>