<svg width="492" height="114.01" viewBox="0 0 492 114.013" xmlns="http://www.w3.org/2000/svg"><circle cx="52" cy="52" r="52" fill="#ffe121"/><path d="M49.658 24.749v35.024a17.512 17.512 0 0 1 0-35.024zm4.68 54.498V44.223a17.512 17.512 0 0 1 0 35.024z"/><circle cx="62.592" cy="33.003" r="8.254"/><circle cx="41.404" cy="70.993" r="8.254"/><path d="M130 63.762c0-3.281 1.968-5.446 4.847-5.446a4.806 4.806 0 0 1 5.058 4.538 5.847 5.847 0 0 1-.633 2.793 12.946 12.946 0 0 0 7.305 1.954c5.057 0 8.288-2.234 8.288-6.213 0-3.771-3.863-5.585-8.5-7.192-8.569-3.071-14.61-5.794-14.61-14.312 0-7.33 5.97-13.055 15.311-13.055 8.641 0 15.313 4.4 15.313 9.913 0 3.282-2.036 5.166-4.706 5.166a4.779 4.779 0 0 1-5.051-4.491c0-.062-.006-.123-.007-.185a4.1 4.1 0 0 1 .493-2.166 11.716 11.716 0 0 0-6.108-1.4c-4.566 0-7.234 2.3-7.234 5.655 0 3.769 3.863 5.446 8.5 7.121 8.288 2.933 14.539 5.8 14.539 14.313 0 8.727-6.813 13.683-16.3 13.683-9.129.005-16.505-5.091-16.505-10.676zm42.92 6.213a9.8 9.8 0 0 1-1.054-4.816V49.45h-5.971v-6.424h5.97V36.6l7.586-3.282v9.7h9.344v6.424h-9.342v14.242a4.223 4.223 0 0 0 .492 2.234 3.45 3.45 0 0 0 3.231 1.467 15.545 15.545 0 0 0 6.041-1.607l-.633 6.563a16.425 16.425 0 0 1-7.374 1.816c-3.724.008-6.744-1.249-8.29-4.182zm19.89-11.659c0-8.378 6.321-15.848 16.365-15.848 10.185 0 16.367 7.33 16.367 15.848 0 8.378-6.322 15.849-16.367 15.849-10.184 0-16.365-7.331-16.365-15.849zm24.865 0c0-5.585-3.512-9.5-8.5-9.5s-8.5 3.91-8.5 9.5 3.512 9.5 8.5 9.5 8.5-3.916 8.5-9.5zm39.055-10.822a4.678 4.678 0 0 1-4.565 4.748 4.8 4.8 0 0 1-4.5-2.723 12.757 12.757 0 0 0-6.111 5.794v12.01h5.338v6.283h-17.56v-6.283h4.572V49.45h-4.566v-6.424h11.941v6.912c2.6-4.119 5.83-7.47 9.764-7.47 3.79 0 5.687 2.304 5.687 5.026zM267.46 87.5c-4.075 0-6.6-2.374-6.6-4.818a3.64 3.64 0 0 1 3.793-3.91 3.518 3.518 0 0 1 3.372 2.3 4.561 4.561 0 0 0 2.459-1.815 14.283 14.283 0 0 0 1.4-2.374l2.318-4.818-10.958-22.615h-3.792v-6.424h15.874V49.1h-4.5l7.094 16.128 7.169-16.128h-4.776v-6.074h15.8v6.424h-3.714l-14.4 30.369a17.7 17.7 0 0 1-2.388 3.7 10.681 10.681 0 0 1-8.151 3.981zm40.33-16.826l-1.686 3.072h-5.2V28.923h-4.635V22.5h12.295v23.877a12.689 12.689 0 0 1 9.061-3.909c8.147 0 14.258 6.492 14.258 15.708 0 8.867-6.462 15.989-14.75 15.989a14.092 14.092 0 0 1-9.343-3.491zm16.226-12.428c0-5.865-3.652-9.216-8.148-9.216a10.98 10.98 0 0 0-7.3 3.072v13.126a12.667 12.667 0 0 0 7.3 2.373c4.285 0 8.148-3.281 8.148-9.355zm11.084 9.077h4.777v-38.4H335.1V22.5h12.433v44.823h4.567v6.283h-17zm20.19-9.007c0-8.378 6.321-15.848 16.365-15.848 10.185 0 16.367 7.33 16.367 15.848 0 8.378-6.322 15.849-16.367 15.849-10.185 0-16.365-7.331-16.365-15.849zm24.865 0c0-5.585-3.512-9.5-8.5-9.5s-8.5 3.91-8.5 9.5 3.512 9.5 8.5 9.5 8.5-3.916 8.5-9.5zm12.305-.279a15.652 15.652 0 0 1 15.593-15.569c8.43 0 13.979 5.445 13.979 10.263a4.821 4.821 0 0 1-4.462 5.155c-.152.011-.3.014-.456.011a4.664 4.664 0 0 1-4.636-4.608 4.2 4.2 0 0 1 .984-2.584c-.562-.767-2.459-2.094-5.479-2.094-3.512 0-7.867 2.863-7.867 9.565 0 5.865 4.5 9.565 9.974 9.565 3.723 0 6.954-1.047 10.957-3.212l-.631 6.843a20.456 20.456 0 0 1-10.957 2.793c-9.694 0-16.999-6.284-16.999-16.128zm33.5 9.286h4.565v-38.4h-4.565V22.5h12.221v34.28l8.991-7.68h-4.285v-6.074h18.193v6.424h-5.69l-7.164 6 7.8 11.73h5.057v6.42h-9.623l-8.85-13.754-4.426 3.7v3.914h3.864v6.14H425.96zm61.4-13.405c-2.459 0-4.144-1.467-4.144-3.771a4.036 4.036 0 0 1 .141-1.326 12.4 12.4 0 0 0-4.356-.768c-3.441 0-5.127 1.536-5.127 3.141 0 1.745 1.756 2.654 6.462 3.911 7.376 1.954 11.66 3.769 11.66 9.285 0 6.423-6.041 9.844-13 9.844-4.7 0-9.763-1.675-11.8-3.7a5.383 5.383 0 0 1-1.756-4.12 4.034 4.034 0 0 1 3.95-4.118h.124a3.947 3.947 0 0 1 4.14 3.746c0 .1.007.2 0 .3a7.583 7.583 0 0 1-.141 1.257 15.476 15.476 0 0 0 5.549.977c3.092 0 5.619-1.047 5.619-3.281 0-1.535-1.333-2.443-6.039-3.7-8.5-2.235-12.081-4.259-12.081-9.5 0-4.747 3.933-9.7 12.572-9.7 3.723 0 8.218 1.4 10.325 3.491a5.381 5.381 0 0 1 1.686 3.909c.009 2.447-1.536 4.123-3.784 4.123z"/></svg>